<svg xmlns="http://www.w3.org/2000/svg"  viewBox="0 0 128 128" width="64px" height="64px"><path fill="#F27788" d="M46,30.3c7.2,0,13.6,3.1,18,8c4.4-4.9,10.8-8,18-8c13.3,0,24,10.5,24,23.5c0,7.4-3.5,13.9-8.9,18.3l0,0L64,97.7L31.5,72.5l0,0C25.7,68.2,22,61.4,22,53.8C22,40.8,32.7,30.3,46,30.3z"/><path fill="#454B54" d="M64,100.7c-0.6,0-1.3-0.2-1.8-0.6L29.6,74.9c-0.1-0.1-0.2-0.2-0.3-0.2C22.8,69.6,19,62,19,53.8c0-14.6,12.1-26.5,27-26.5c6.7,0,13.1,2.4,18,6.8c4.9-4.3,11.3-6.8,18-6.8c14.9,0,27,11.9,27,26.5c0,8-3.6,15.4-9.8,20.5c-0.1,0.1-0.1,0.1-0.2,0.2l-33.2,25.7C65.3,100.5,64.6,100.7,64,100.7z M33.6,70.4L64,94l31.2-24.2c0,0,0.1-0.1,0.1-0.1c4.9-3.9,7.7-9.7,7.7-15.9c0-11.3-9.4-20.5-21-20.5c-6,0-11.8,2.6-15.8,7c-1.1,1.3-3.3,1.3-4.5,0c-4-4.5-9.7-7-15.8-7c-11.6,0-21,9.2-21,20.5c0,6.4,3,12.4,8.3,16.3C33.4,70.2,33.5,70.3,33.6,70.4z"/><g><path fill="#FFF" d="M28.9,56.8c-1.7,0-3-1.3-3-3c0-10.9,9-19.7,20.1-19.7c1.7,0,3,1.3,3,3s-1.3,3-3,3c-7.8,0-14.1,6.1-14.1,13.7C31.9,55.5,30.6,56.8,28.9,56.8z"/></g></svg>