<?xml version="1.0" encoding="UTF-8"?>
<svg xmlns="http://www.w3.org/2000/svg" xmlns:xlink="http://www.w3.org/1999/xlink" width="64pt" height="64pt" viewBox="0 0 64 64" version="1.1">
<g id="surface14651758">
<path style=" stroke:none;fill-rule:nonzero;fill:rgb(16.862746%,21.176471%,78.039217%);fill-opacity:1;" d="M 23 15.148438 C 26.601562 15.148438 29.800781 16.699219 32 19.148438 C 34.199219 16.699219 37.398438 15.148438 41 15.148438 C 47.648438 15.148438 53 20.398438 53 26.898438 C 53 30.601562 51.25 33.851562 48.550781 36.050781 L 32 48.851562 L 15.75 36.25 C 12.851562 34.101562 11 30.699219 11 26.898438 C 11 20.398438 16.351562 15.148438 23 15.148438 Z M 23 15.148438 "/>
<path style=" stroke:none;fill-rule:nonzero;fill:rgb(100%,100%,100%);fill-opacity:1;" d="M 32 50.351562 C 31.699219 50.351562 31.351562 50.25 31.101562 50.050781 L 14.800781 37.449219 C 14.75 37.398438 14.699219 37.351562 14.648438 37.351562 C 11.398438 34.800781 9.5 31 9.5 26.898438 C 9.5 19.601562 15.550781 13.648438 23 13.648438 C 26.351562 13.648438 29.550781 14.851562 32 17.050781 C 34.449219 14.898438 37.648438 13.648438 41 13.648438 C 48.449219 13.648438 54.5 19.601562 54.5 26.898438 C 54.5 30.898438 52.699219 34.601562 49.601562 37.148438 C 49.550781 37.199219 49.550781 37.199219 49.5 37.25 L 32.898438 50.101562 C 32.648438 50.25 32.300781 50.351562 32 50.351562 Z M 16.800781 35.199219 L 32 47 L 47.601562 34.898438 L 47.648438 34.851562 C 50.101562 32.898438 51.5 30 51.5 26.898438 C 51.5 21.25 46.800781 16.648438 41 16.648438 C 38 16.648438 35.101562 17.949219 33.101562 20.148438 C 32.550781 20.800781 31.449219 20.800781 30.851562 20.148438 C 28.851562 17.898438 26 16.648438 22.949219 16.648438 C 17.148438 16.648438 12.449219 21.25 12.449219 26.898438 C 12.449219 30.101562 13.949219 33.101562 16.601562 35.050781 C 16.699219 35.101562 16.75 35.148438 16.800781 35.199219 Z M 16.800781 35.199219 "/>
<path style=" stroke:none;fill-rule:nonzero;fill:rgb(100%,100%,100%);fill-opacity:1;" d="M 14.449219 28.398438 C 13.601562 28.398438 12.949219 27.75 12.949219 26.898438 C 12.949219 21.449219 17.449219 17.050781 23 17.050781 C 23.851562 17.050781 24.5 17.699219 24.5 18.550781 C 24.5 19.398438 23.851562 20.050781 23 20.050781 C 19.101562 20.050781 15.949219 23.101562 15.949219 26.898438 C 15.949219 27.75 15.300781 28.398438 14.449219 28.398438 Z M 14.449219 28.398438 "/>
</g>
</svg>
